<svg width="72" height="72" viewBox="0 0 72 72" fill="none" xmlns="http://www.w3.org/2000/svg">
<path opacity="0.7" fill-rule="evenodd" clip-rule="evenodd" d="M3.15369 1.56875C2.58205 1.84486 1.87078 2.60611 1.57255 3.25993C0.810204 4.93118 0.808744 67.0649 1.57061 68.7362C1.86786 69.3876 2.64432 70.1634 3.29623 70.4604C4.11794 70.8342 12.4702 71 30.5092 71H56.5362L57.7446 69.7925C58.9259 68.6122 58.9497 68.4406 58.8169 62.1363C58.6889 56.0569 58.6252 55.6875 57.7081 55.6875C56.8047 55.6875 56.7264 56.0516 56.615 60.7917C56.5488 63.599 56.3805 66.3883 56.2409 66.9896L55.9869 68.0833H29.9683H3.94961V36V3.91667H29.9775C44.2928 3.91667 56.0467 3.97111 56.0978 4.03819C56.1484 4.10528 56.3129 7.98785 56.4627 12.6667C56.722 20.759 56.7828 21.1736 57.7081 21.1736C58.6408 21.1736 58.6865 20.8051 58.814 12.2909L58.9463 3.40819L57.7412 2.2041L56.5362 1L30.3643 1.03306C13.4014 1.05444 3.82701 1.24257 3.15369 1.56875ZM25.9313 9.18854C17.6364 12.1392 14.8769 22.4633 20.6357 29.0005C28.4095 37.8249 42.3833 32.7246 42.3833 21.0628C42.3833 19.3687 42.0661 17.224 41.6784 16.2969C39.0887 10.1039 32.1561 6.97431 25.9313 9.18854ZM35.4687 12.7833C37.7406 14.2859 39.9562 18.3094 39.9401 20.9043C39.9343 21.8547 39.5091 23.5575 38.9953 24.6887L38.0607 26.7449L36.6903 25.3756C35.9362 24.6226 35.041 23.9133 34.701 23.8001C34.2159 23.6387 34.2018 23.2503 34.6358 22.0068C35.4327 19.7226 34.8274 17.3197 33.0858 15.8556C29.1217 12.5228 23.9848 16.4739 25.4394 21.737C25.8588 23.2547 25.8033 23.5872 25.0619 24.0018C24.5841 24.2692 23.7026 25.0163 23.1032 25.6628L22.0135 26.8378L21.1733 25.221C20.1127 23.1788 20.0733 18.7533 21.0983 16.7986C22.1161 14.8585 24.2377 12.8942 26.3287 11.9565C28.8775 10.8136 33.0619 11.1918 35.4687 12.7833ZM31.583 18.1111C32.3356 18.8631 32.3356 21.0535 31.583 21.8056C30.8323 22.5556 29.1227 22.5556 28.372 21.8056C27.6194 21.0535 27.6194 18.8631 28.372 18.1111C28.6931 17.7903 29.4156 17.5278 29.9775 17.5278C30.5394 17.5278 31.2619 17.7903 31.583 18.1111ZM62.3387 19.1076C61.1526 19.9214 58.4749 24.1355 51.8842 35.5596L43.0245 50.9178L42.4607 55.8722C41.4195 65.0213 41.5402 65.1171 48.0871 60.3133L52.8431 56.8235L61.7705 41.4289C66.6807 32.9623 70.8092 25.3527 70.9459 24.519C71.2967 22.3724 69.9014 19.7128 67.9354 18.7805C65.7204 17.7305 64.2185 17.8185 62.3387 19.1076ZM67.2781 21.7351C68.3582 22.7117 68.4171 24.3863 67.4387 26.2768L66.7094 27.6865L64.0619 26.1669C61.6873 24.8044 61.4683 24.5438 61.9349 23.6397C63.354 20.8902 65.4985 20.1256 67.2781 21.7351ZM34.0466 26.6404C35.9741 28.0769 35.9362 29.0924 33.9226 29.9328C31.7299 30.8482 28.2417 30.855 26.0699 29.9484C24.2334 29.1818 24.068 28.8231 24.9908 27.6068C26.8118 25.2078 31.4589 24.712 34.0466 26.6404ZM62.8661 28.5868C64.1757 29.3223 65.1935 30.0427 65.1268 30.1885C65.0602 30.3339 61.9471 35.7287 58.2088 42.1775L51.4123 53.9015L49.2085 52.6483C47.9966 51.9595 46.8368 51.2522 46.6305 51.0772C46.4247 50.9017 49.0231 45.9614 52.4053 40.0979C59.5651 27.6856 59.8293 27.25 60.202 27.25C60.3567 27.25 61.5559 27.8513 62.8661 28.5868ZM10.9222 38.7115C10.7602 39.133 10.9859 39.8364 11.4237 40.2739C12.1404 40.9894 12.2951 40.9943 12.9679 40.3225C13.3907 39.8996 13.5794 39.2215 13.4024 38.7601C13.0063 37.7286 11.3123 37.6956 10.9222 38.7115ZM16.7724 38.6799C16.6167 39.0844 16.7602 39.7406 17.0905 40.1383C17.9448 41.1669 36.8571 41.2082 38.2583 40.1844C39.0449 39.6099 39.0868 39.3906 38.5351 38.7261C37.5879 37.5857 17.2092 37.5424 16.7724 38.6799ZM10.9455 46.4281C10.5743 47.3949 11.1241 48.1528 12.1968 48.1528C13.1533 48.1528 13.6694 47.3181 13.324 46.3299C13.0316 45.4918 11.2773 45.5642 10.9455 46.4281ZM16.7835 46.4281C16.1779 48.0055 17.1163 48.1528 27.7649 48.1528C38.5725 48.1528 39.2206 48.0439 38.6222 46.3299C38.4611 45.8685 35.8374 45.7222 27.7323 45.7222C18.8463 45.7222 17.0093 45.8408 16.7835 46.4281ZM11.2525 53.7367C10.4624 54.6881 10.9723 55.9306 12.153 55.9306C13.3036 55.9306 13.8942 54.5874 13.1421 53.6813C12.4318 52.8267 11.9978 52.8394 11.2525 53.7367ZM17.0905 53.7367C16.7602 54.1344 16.6167 54.7906 16.7724 55.1951C17.2092 56.3326 37.5879 56.2893 38.5351 55.1489C39.0868 54.4844 39.0449 54.2651 38.2583 53.6906C36.8571 52.6668 17.9448 52.7081 17.0905 53.7367ZM47.4751 54.8052C48.4208 55.2558 49.1895 55.7483 49.1841 55.899C49.1695 56.2747 45.2868 58.995 45.0746 58.7777C44.8669 58.5662 45.3622 53.9861 45.5923 53.9861C45.6823 53.9861 46.5293 54.3546 47.4751 54.8052ZM28.9374 61.5208C28.246 63.3199 29.0648 63.7083 33.5513 63.7083C36.8104 63.7083 38.0359 63.5275 38.4913 62.9792C38.9744 62.3973 38.9744 62.1027 38.4913 61.5208C38.0359 60.9725 36.8104 60.7917 33.5513 60.7917C30.1478 60.7917 29.1573 60.9482 28.9374 61.5208Z" fill="black" stroke="black"/>
</svg>
